# xmcd
#
# Track frame offsets:
#	150
#	39499
#	67732
#	122120
#
# Disc length: 1996 seconds
#
# Revision: 0
# Processed by: cddbd v1.5.2PL0 Copyright (c) Steve Scherf et al.
# Submitted via: EZCDAudioConverter 1.3.4.1
#
DISCID=2c07ca04
DTITLE=Orchestre Poly-Rythmo - The 1st Album
DYEAR=1900
DGENRE=
TTITLE0=Ou C'est Lui Ou C'est Moi
TTITLE1=Yeye We Nou Mi
TTITLE2=La La La La
TTITLE3=Egni Miton? Nin Mi Na Wa Gbin
EXTD=
EXTT0=
EXTT1=
EXTT2=
EXTT3=
PLAYORDER=
